<?xml version="1.0" encoding="UTF-8" standalone="no"?>
<!DOCTYPE svg PUBLIC "-//W3C//DTD SVG 20010904//EN"
              "http://www.w3.org/TR/2001/REC-SVG-20010904/DTD/svg10.dtd">

<svg xmlns="http://www.w3.org/2000/svg" 
     viewBox="0 0 1000 1000" preserveAspectRatio="xMinYMin">

  <path id="blue"
        fill="#003366" stroke="black" stroke-width="0"
        d="M 276.00,366.67
           C 276.00,366.67 271.33,408.67 271.33,408.67
             261.53,420.01 173.12,325.05 182.67,314.00
             182.67,314.00 210.00,292.00 210.00,292.00
             204.43,297.53 266.84,375.76 276.00,366.67 Z
           M 840.00,269.33
           C 840.00,269.33 870.67,304.00 870.67,304.00
             870.67,304.00 784.67,379.33 784.67,379.33
             752.97,407.20 739.95,371.38 762.00,352.00
             762.00,352.00 840.00,269.33 840.00,269.33 Z
           M 412.67,618.67
           C 433.46,634.75 568.70,638.79 590.00,618.67
             593.50,652.00 632.42,650.21 610.75,724.38
             616.95,719.26 628.43,760.59 618.75,762.88
             614.75,765.50 582.12,774.62 574.00,774.75
             560.25,780.38 545.64,737.84 562.25,737.50
             564.50,680.25 528.22,679.98 507.75,661.00
             507.75,661.00 484.25,660.25 484.25,660.25
             463.63,682.13 436.65,676.26 438.75,734.00
             454.57,746.17 437.67,772.23 431.25,769.88
             422.75,771.25 394.12,764.88 386.75,760.25
             377.04,759.26 384.83,726.98 399.00,727.25
             366.18,638.07 406.41,644.61 412.67,618.67 Z" />
  <path id="orange"
        fill="#dfa40d" stroke="black" stroke-width="0"
        d="M 778.00,384.67
           C 763.02,398.09 731.44,379.96 769.33,346.00
             736.00,252.00 658.67,197.33 546.00,184.67
             364.00,164.50 292.18,275.42 276.67,366.67
             239.63,549.09 361.50,667.00 594.00,621.33
             703.33,605.33 795.33,536.00 778.00,384.67 Z" />
  <path id="orange2"
        fill="#d09a0f" stroke="black" stroke-width="0"
        d="M 491.00,213.00
           C 746.00,207.33 787.07,592.02 509.00,601.00
             224.62,617.49 258.04,226.51 491.00,213.00 Z
           M 544.67,184.00
           C 684.00,200.67 739.36,261.87 768.75,346.00
             729.75,379.25 761.75,396.50 778.50,386.00
             786.01,496.73 746.67,592.00 612.00,616.00
             782.00,546.67 798.67,256.00 544.67,184.00 Z" />
  <path id="white"
        fill="#FFFFFF" stroke="black" stroke-width="0"
        d="M 569.50,464.50
           C 548.00,474.50 472.00,501.33 408.00,486.67
             421.33,577.33 489.33,604.00 604.00,542.67
             565.00,549.00 569.50,464.50 569.50,464.50 Z
           M 922.50,270.75
           C 941.47,296.92 1031.85,236.16 969.67,209.33
             976.02,191.82 966.15,179.75 946.33,179.67
             949.00,154.33 926.33,151.67 904.67,160.67
             907.72,142.81 899.80,118.68 881.50,110.00
             826.50,88.50 825.00,162.50 848.00,188.33
             874.00,220.50 867.20,245.16 867.50,245.00
             857.67,234.00 831.00,264.33 840.00,269.00
             849.66,284.14 873.65,304.73 871.67,304.00
             878.00,311.00 900.55,291.82 902.33,286.00
             905.27,279.45 897.09,274.18 897.09,274.18
             897.09,274.18 910.85,287.90 922.50,270.75 Z
           M 191.19,262.62
           C 191.19,262.62 167.67,233.33 203.67,199.33
             282.33,119.67 177.00,60.00 156.33,141.00
             127.33,127.67 105.33,128.33 102.50,169.00
             58.67,159.33 76.67,206.67 76.67,206.67
             28.00,227.33 96.33,280.67 120.67,272.00
             132.29,289.62 152.44,292.87 162.56,288.88
             155.25,293.00 172.67,318.00 182.62,314.50
             182.73,314.50 203.33,302.67 211.33,292.67
             219.96,286.23 200.44,256.00 191.19,262.62 Z
           M 406.33,767.00
           C 421.09,770.78 436.38,773.22 441.64,762.00
             453.06,761.43 462.64,781.53 457.00,819.50
             452.09,852.98 275.86,831.32 275.68,803.32
             285.59,720.48 375.78,743.69 382.77,746.23
             378.31,758.86 389.33,763.67 406.33,767.00 Z
           M 405.68,781.50
           C 427.68,779.50 429.41,812.05 408.23,814.41
             387.77,815.50 382.17,785.06 405.50,781.50M 596.33,770.33
           C 569.00,779.00 564.58,774.88 561.27,768.36
             530.91,772.91 536.73,830.41 556.00,837.50
             575.50,845.50 734.59,825.14 729.50,793.50
             726.33,754.33 701.33,732.33 622.33,752.67
             623.95,757.54 621.33,765.67 596.33,770.33 Z
           M 583.32,788.05
           C 602.43,788.27 608.15,818.87 584.59,819.32
             561.04,819.76 562.39,788.31 583.50,787.86M 501.00,308.00
           C 501.00,308.00 543.33,307.33 543.33,307.33
             526.17,371.95 619.00,357.83 592.67,305.00
             592.67,305.00 632.33,300.67 632.33,300.67
             661.65,417.27 486.02,414.51 501.00,308.00 Z
           M 344.67,340.33
           C 344.67,340.33 379.33,325.67 379.33,325.67
             371.29,396.40 481.67,365.16 436.67,311.67
             436.67,311.67 483.00,305.33 483.00,305.33
             519.90,428.33 352.08,429.28 344.67,340.33 Z" />
  <path id="black"
        fill="#000000" stroke="black" stroke-width="0"
        d="M 379.50,325.50
           C 370.72,396.49 481.37,364.28 439.00,312.00
             439.00,312.00 379.50,325.50 379.50,325.50 Z
           M 593.00,305.50
           C 620.66,368.03 517.72,362.15 543.50,307.50
             543.50,307.50 593.00,305.50 593.00,305.50 Z
           M 408.33,781.67
           C 428.57,781.92 428.02,814.28 406.00,814.00
             385.97,812.77 383.43,780.14 408.33,781.67 Z
           M 582.33,788.00
           C 560.97,790.22 565.69,820.97 584.67,819.00
             603.86,817.77 604.53,786.57 582.33,788.00 Z" />   
  <path id="Tokey"
        fill="none" stroke="black" stroke-width="3"
        d="M 421.50,266.50
           C 364.17,265.83 345.17,312.00 345.17,340.00
             340.72,365.47 367.10,394.42 410.00,401.25
             432.24,402.49 468.75,403.75 484.00,362.50
             494.67,326.00 489.67,301.00 460.33,278.67
             437.67,262.67 407.00,268.33 401.67,260.00M 345.00,341.00
           C 389.91,314.76 470.25,307.75 483.38,305.56M 604.18,252.00
           C 601.45,263.55 529.97,234.08 503.33,300.33
             487.33,350.33 524.67,383.67 566.18,388.18
             598.92,389.36 632.36,376.00 635.45,328.73
             640.79,283.39 597.00,252.83 565.00,255.50M 633.00,300.50
           C 592.25,307.75 523.35,307.32 500.73,307.82M 488.00,390.55
           C 504.18,384.73 551.03,388.18 552.36,428.18
             553.70,468.18 483.52,479.58 458.18,456.91M 594.67,450.67
           C 570.67,470.67 472.00,501.33 408.00,486.67
             421.33,577.33 489.33,604.00 604.00,542.67
             576.00,546.67 569.33,508.33 569.33,464.33M 428.38,542.00
           C 453.71,530.00 530.67,517.33 572.00,508.00M 468.33,565.00
           C 468.33,541.00 456.67,518.33 454.33,494.33M 489.67,492.00
           C 489.67,517.67 500.33,565.00 507.67,568.33M 520.67,487.33
           C 519.33,506.00 530.67,555.33 536.67,562.67M 546.67,480.00
           C 547.00,491.67 557.33,547.00 564.67,552.33M 580.55,623.64
           C 689.21,600.30 744.00,570.00 766.67,492.00
             785.33,412.00 777.33,407.33 778.67,385.33
             765.05,398.26 727.10,378.58 769.45,346.91
             722.79,220.24 629.00,196.00 530.67,181.67
             434.67,176.67 370.67,208.00 334.00,250.00
             271.33,300.00 229.90,508.38 336.00,582.67
             443.10,659.09 600.02,635.92 656.00,590.67
             712.00,545.33 754.67,486.67 728.00,361.33
             701.33,236.00 596.00,197.33 545.33,185.33M 897.09,274.18
           C 897.09,274.18 905.27,279.45 902.33,286.00
             900.55,291.82 879.21,307.39 875.33,305.00
             873.11,305.83 861.82,293.27 856.36,287.64
             850.91,282.91 837.27,267.64 838.67,265.33
             836.81,262.70 857.45,238.30 860.00,242.00
             862.28,241.23 867.94,244.99 867.64,245.09
             867.34,245.25 874.00,220.50 848.00,188.33
             825.00,162.50 826.50,88.50 881.50,110.00
             919.50,129.00 903.50,190.00 887.50,200.00
             865.00,214.00 892.50,261.00 926.00,226.50
             939.63,212.17 973.59,135.26 904.00,161.50M 946.00,180.00
           C 971.74,179.91 979.01,199.21 960.50,229.00
             942.50,265.50 898.50,270.00 899.00,238.50M 920.50,259.00
           C 914.17,277.67 946.83,284.17 969.50,265.50
             1000.52,243.32 994.35,213.97 969.00,209.50M 922.67,270.00
           C 911.33,288.33 899.64,280.42 867.64,245.09M 872.55,303.64
           C 867.21,308.64 778.67,385.33 778.67,385.33M 840.00,268.73
           C 840.00,268.73 769.45,346.91 769.45,346.91M 582.48,196.73
           C 582.48,196.73 601.15,196.55 601.15,196.55M 625.09,217.09
           C 625.09,217.09 656.97,216.18 656.97,216.18M 655.27,238.36
           C 655.27,238.36 690.42,235.94 690.42,235.94M 680.16,262.80
           C 680.16,262.80 718.97,261.21 718.97,261.21M 698.83,287.83
           C 698.83,287.83 738.33,285.17 738.33,285.17M 713.92,316.75
           C 713.92,316.75 755.67,314.83 755.67,314.83M 724.25,346.50
           C 724.25,346.50 768.33,343.67 768.33,343.67M 730.67,376.25
           C 730.67,376.25 749.64,375.64 749.64,375.64M 734.83,405.17
           C 734.83,405.17 779.25,403.92 779.25,403.92M 736.08,434.75
           C 736.08,434.75 777.83,434.50 777.83,434.50M 733.83,464.83
           C 733.83,464.83 772.67,464.75 772.67,464.75M 725.67,497.50
           C 726.03,497.00 764.62,498.07 764.25,498.58M 712.67,526.33
           C 712.67,526.33 752.33,527.33 752.33,527.33M 694.67,553.33
           C 694.67,553.33 733.00,554.67 733.00,554.67M 666.00,583.00
           C 666.00,583.00 697.33,583.33 697.33,583.33M 633.67,604.67
           C 633.67,604.67 651.27,604.18 651.27,604.18M 276.22,367.67
           C 276.22,367.67 222.12,337.62 210.12,291.62
             218.50,285.12 201.00,256.50 191.50,262.50
             182.50,267.50 163.94,287.56 162.38,289.00
             155.81,293.69 176.62,320.88 182.38,314.50
             190.00,311.25 210.12,291.75 210.12,291.75M 182.50,314.12
           C 182.61,314.12 218.67,390.00 270.88,409.25M 191.00,262.38
           C 191.00,262.38 167.67,233.33 203.67,199.33
             277.50,121.50 189.00,70.00 161.67,125.67
             150.50,147.50 152.50,180.00 161.67,189.00
             187.00,211.00 174.00,251.17 125.00,216.50
             90.38,183.99 93.25,108.09 156.12,141.38M 102.50,169.00
           C 26.86,152.90 111.76,304.58 154.50,230.00M 76.00,206.00
           C 17.56,233.25 135.60,312.04 133.00,249.00M 120.50,271.50
           C 132.12,289.12 152.00,293.19 162.38,288.94M 413.50,620.00
           C 399.00,648.50 369.03,639.47 399.45,727.27
             390.18,724.00 375.27,753.45 385.41,759.56
             392.00,764.18 419.64,771.45 431.27,769.64
             442.68,771.68 452.18,736.00 437.95,734.38
             432.36,732.91 406.91,728.00 399.33,726.83M 438.61,734.17
           C 440.57,690.42 437.67,693.23 484.59,660.59
             484.59,660.59 461.32,659.68 461.32,659.68
             461.32,659.68 536.77,662.23 536.77,662.23
             536.77,662.23 507.50,661.32 507.50,661.32
             539.55,682.10 564.58,691.15 561.95,738.14
             545.15,737.31 560.55,780.73 573.09,775.09
             579.09,774.55 619.16,765.77 622.00,759.83
             623.97,760.17 620.05,729.59 614.00,724.33
             609.96,721.42 586.86,735.50 562.41,738.05M 610.67,724.25
           C 632.13,644.30 594.00,655.00 591.00,620.50M 442.00,762.00
           C 453.82,762.36 462.64,781.53 457.00,819.50
             452.09,852.98 275.86,831.32 275.68,803.32
             274.59,786.95 287.57,752.66 323.50,743.50
             353.32,737.68 382.77,746.23 382.77,746.23
             382.77,746.23 378.68,736.59 378.68,736.59
             378.68,736.59 365.50,782.39 363.50,779.72
             361.50,777.06 353.41,733.77 353.41,733.77
             353.41,733.77 343.95,780.77 343.95,780.77
             343.95,780.77 325.32,735.14 325.32,735.14
             325.32,735.14 323.05,783.59 323.05,783.59
             323.05,783.59 302.77,747.41 302.77,747.41
             302.77,747.41 301.68,775.14 301.68,775.14
             301.68,775.14 290.77,763.86 290.77,763.86M 405.68,781.50
           C 427.68,779.50 429.41,812.05 408.23,814.41
             387.77,815.50 382.17,785.06 405.50,781.50M 560.91,768.36
           C 530.73,772.55 536.73,830.41 556.00,837.50
             575.50,845.50 734.59,825.14 729.50,793.50
             726.41,775.14 725.50,726.23 622.05,752.59
             622.05,752.59 625.14,742.77 625.14,742.77
             625.14,742.77 644.50,788.50 644.50,788.50
             644.50,788.50 649.50,738.23 649.50,738.23
             649.50,738.23 661.50,790.50 661.50,790.50
             661.50,790.50 671.95,739.32 671.95,739.32
             671.95,739.32 680.00,785.50 680.00,785.50
             680.00,785.50 690.68,740.59 690.68,740.59
             690.68,740.59 694.50,766.00 694.50,766.00
             694.50,766.00 701.00,749.00 701.00,749.00M 583.32,788.05
           C 602.43,788.27 608.15,818.87 584.59,819.32
             561.04,819.76 562.39,788.31 583.50,787.86M 437.50,312.00
           C 454.50,324.00 456.00,363.50 410.50,366.50
             374.50,365.25 378.25,329.00 379.50,325.50
             379.31,325.34 435.78,310.57 438.00,312.50M 592.81,305.19
           C 598.42,315.92 605.75,348.75 568.83,350.42
             540.75,349.75 534.25,325.25 543.50,307.75
             543.50,307.75 592.88,305.19 592.88,305.19M 507.50,601.50
           C 799.74,585.11 729.97,207.12 497.33,212.67
             246.94,229.02 232.30,619.48 507.50,601.50 Z" />                       
</svg>
